<mxfile host="app.diagrams.net" modified="2023-11-12T23:21:27.336Z" agent="Mozilla/5.0 (Windows NT 10.0; Win64; x64) AppleWebKit/537.36 (KHTML, like Gecko) Chrome/119.0.0.0 Safari/537.36" version="22.1.0" etag="N5kYashU4WcYxdTIqodW" type="github">
  <diagram name="PÃ¡gina-1" id="80JThjY91lD-KVM_GMzh">
    <mxGraphModel>
      <root>
        <mxCell id="0" />
        <mxCell id="1" parent="0" />
      </root>
    </mxGraphModel>
  </diagram>
</mxfile>
